<svg id="visual" viewBox="0 0 900 600" width="900" height="600" xmlns="http://www.w3.org/2000/svg" xmlns:xlink="http://www.w3.org/1999/xlink" version="1.1"><rect x="0" y="0" width="900" height="600" fill="#002233"></rect><path d="M0 332L30 331.3C60 330.7 120 329.3 180 318.3C240 307.3 300 286.7 360 276.5C420 266.3 480 266.7 540 274.2C600 281.7 660 296.3 720 297C780 297.7 840 284.3 870 277.7L900 271L900 0L870 0C840 0 780 0 720 0C660 0 600 0 540 0C480 0 420 0 360 0C300 0 240 0 180 0C120 0 60 0 30 0L0 0Z" fill="#0066FF" stroke-linecap="round" stroke-linejoin="miter"></path></svg>